<?xml version="1.0" encoding="UTF-8"?>
<svg fill="none" viewBox="0 0 138 21" xmlns="http://www.w3.org/2000/svg">
<path d="m15.078 1.7812v1.7188l-1.5234 0.29297v12.207h-2.8418l-5.7422-9.5703-0.05859 0.00976v7.5586l1.5234 0.293v1.709h-5.8887v-1.709l1.5137-0.293v-10.205l-1.5137-0.29297v-1.7188h4.3652l5.7422 9.5704 0.0586-0.0098v-7.5488l-1.5234-0.29297v-1.7188h5.8886zm6.0449 14.424c-1.5234 0-2.7408-0.4883-3.6523-1.4649-0.9115-0.9765-1.3672-2.2168-1.3672-3.7207v-0.3906c0-1.569 0.4297-2.8613 1.2891-3.877 0.8659-1.0156 2.0247-1.5202 3.4765-1.5137 1.4258 0 2.5326 0.42969 3.3204 1.2891 0.7877 0.85938 1.1816 2.0215 1.1816 3.4864v1.5527h-6.3086l-0.0195 0.0586c0.0521 0.6966 0.2832 1.2695 0.6933 1.7188 0.4167 0.4492 0.9798 0.6738 1.6895 0.6738 0.6315 0 1.1556-0.0619 1.5722-0.1856 0.4167-0.1302 0.8724-0.332 1.3672-0.6054l0.7715 1.7578c-0.4362 0.345-1.0026 0.6347-1.6992 0.8691-0.6901 0.2344-1.4616 0.3516-2.3145 0.3516zm-0.2539-8.7696c-0.5273 0-0.944 0.20182-1.25 0.60547-0.3059 0.40364-0.4948 0.93424-0.5664 1.5918l0.0293 0.04883h3.4961v-0.25391c0-0.60546-0.1432-1.0872-0.4297-1.4453-0.2799-0.36458-0.7063-0.54687-1.2793-0.54687zm20.918-0.28321-1.0644 0.13672-2.2071 8.7109h-2.3828l-1.9629-6.2891h-0.0586l-1.9629 6.2891h-2.373l-2.2168-8.7109-1.0645-0.13672v-1.7188h4.7852v1.7188l-1.1231 0.21485 0.9961 4.834h0.0586l1.9727-6.7676h1.9141l1.9921 6.7871h0.0586l0.9864-4.8438-1.1328-0.22461v-1.7188h4.7851v1.7188zm9.5996 1.9141h-1.914l-0.3028-1.3184c-0.1953-0.15625-0.4427-0.28646-0.7422-0.39063-0.2929-0.10416-0.6185-0.15625-0.9765-0.15625-0.5013 0-0.8985 0.11393-1.1914 0.3418-0.293 0.22135-0.4395 0.5013-0.4395 0.83984 0 0.31901 0.14 0.58594 0.4199 0.80078 0.28 0.20834 0.8399 0.39388 1.6797 0.55664 1.3086 0.26047 2.2787 0.64457 2.9102 1.1524 0.6315 0.5013 0.9472 1.1946 0.9472 2.0801 0 0.9505-0.4101 1.7285-1.2304 2.3339-0.8138 0.599-1.888 0.8985-3.2227 0.8985-0.8138 0-1.5625-0.1172-2.2461-0.3516-0.6771-0.2409-1.2793-0.5827-1.8066-1.0254l-0.0293-2.373h1.9922l0.3906 1.3769c0.1693 0.1433 0.4004 0.2507 0.6934 0.3223 0.2929 0.0651 0.5989 0.0977 0.9179 0.0977 0.5795 0 1.0189-0.1042 1.3184-0.3125 0.306-0.2084 0.459-0.4916 0.459-0.8497 0-0.3125-0.153-0.5826-0.459-0.8105s-0.8692-0.4297-1.6895-0.6055c-1.2435-0.2539-2.1842-0.6282-2.8222-1.123-0.6315-0.5013-0.9473-1.1817-0.9473-2.041 0-0.88542 0.3646-1.6471 1.0938-2.2852 0.7291-0.64453 1.7675-0.9668 3.1152-0.9668 0.8203 0 1.595 0.11068 2.3242 0.33203 0.7357 0.22136 1.3119 0.50456 1.7285 0.84961l0.0293 2.627zm1.4551 5.2246 1.0156-0.1465 4.3262-12.363h2.9199l4.2969 12.363 1.0156 0.1465v1.709h-4.8437v-1.709l0.9863-0.1758-0.625-1.9531h-4.6094l-0.625 1.9531 0.9863 0.1758v1.709h-4.8437v-1.709zm5.1562-4.2285h3.2618l-1.6016-5.0098h-0.0586l-1.6016 5.0098zm9.2774 4.2285 1.3672-0.293v-6.5527l-1.5137-0.29297v-1.7188h4.1699l0.127 1.5137c0.3515-0.54037 0.7845-0.96029 1.2988-1.2598s1.0905-0.44922 1.7285-0.44922c1.0677 0 1.9011 0.33529 2.5 1.0059 0.599 0.67057 0.8985 1.722 0.8985 3.1543v4.5996l1.3672 0.293v1.709h-5.4493v-1.709l1.2207-0.293v-4.5898c0-0.70963-0.1432-1.2109-0.4297-1.5039-0.2864-0.29948-0.7194-0.44922-1.2988-0.44922-0.3776 0-0.7161 0.07812-1.0156 0.23437-0.2995 0.14974-0.5501 0.36459-0.752 0.64453v5.664l1.1524 0.293v1.709h-5.3711v-1.709zm19.58 1.709c-0.0782-0.1758-0.1465-0.3548-0.2051-0.5371-0.0586-0.1888-0.1042-0.3776-0.1367-0.5664-0.3386 0.3906-0.752 0.7064-1.2403 0.9473-0.4817 0.2408-1.0351 0.3613-1.6601 0.3613-1.0352 0-1.8587-0.28-2.4707-0.8399-0.6055-0.5664-0.9082-1.3346-0.9082-2.3047 0-0.9895 0.3971-1.7545 1.1914-2.2949 0.7943-0.5403 1.9596-0.81052 3.4961-0.81052h1.4551v-1.0352c0-0.50781-0.1465-0.90169-0.4395-1.1816s-0.7259-0.41992-1.2988-0.41992c-0.3255 0-0.6153 0.03906-0.8692 0.11719-0.2539 0.07161-0.459 0.1595-0.6152 0.26367l-0.1855 1.1328h-2.1485l0.0098-2.3438c0.5208-0.35156 1.1165-0.64779 1.7871-0.88867 0.6771-0.24089 1.4127-0.36133 2.207-0.36133 1.3086 0 2.3698 0.32227 3.1836 0.9668 0.8203 0.63802 1.2305 1.5495 1.2305 2.7344v4.3652 0.459c0.0065 0.1432 0.0195 0.2799 0.039 0.4101l0.8692 0.1172v1.709h-3.291zm-2.4707-1.9043c0.4297 0 0.8203-0.0911 1.1718-0.2734 0.3516-0.1888 0.625-0.4232 0.8204-0.7032v-1.6113h-1.4551c-0.6055 0-1.0645 0.1432-1.377 0.4297-0.3125 0.2799-0.4687 0.6185-0.4687 1.0156 0 0.3581 0.1139 0.638 0.3418 0.8399 0.2343 0.2018 0.5566 0.3027 0.9668 0.3027zm6.4355-11.611v-1.7188h4.375v13.232l1.377 0.293v1.709h-5.6055v-1.709l1.377-0.293v-11.221l-1.5235-0.29296zm17.627 4.668-0.986 0.14649-3.887 10.283c-0.306 0.7618-0.716 1.3998-1.23 1.9141-0.508 0.5143-1.276 0.7715-2.305 0.7715-0.2408 0-0.4687-0.0196-0.6835-0.0586-0.2084-0.0391-0.4558-0.0944-0.7422-0.166l0.332-2.0801c0.0912 0.013 0.1856 0.026 0.2832 0.0391 0.0977 0.013 0.1823 0.0195 0.2539 0.0195 0.4753 0 0.8396-0.1172 1.0936-0.3516 0.254-0.2278 0.449-0.5143 0.586-0.8594l0.322-0.8007-3.3492-8.7012-0.9864-0.15625v-1.7188h5.1756v1.7188l-1.181 0.19532 1.445 4.2187 0.146 0.7617 0.059 0.0098 1.67-4.9902-1.192-0.19532v-1.7188h5.176v1.7188zm4.678 6.6602h2.949l0.117-1.4063h2.178v3.5938h-8.779v-1.6797l5.029-6.6797h-2.588l-0.107 1.3965h-2.188v-3.6035h8.457v1.6309l-5.068 6.748zm11.572 2.3926c-1.523 0-2.741-0.4883-3.652-1.4649-0.912-0.9765-1.367-2.2168-1.367-3.7207v-0.3906c0-1.569 0.429-2.8613 1.289-3.877 0.866-1.0156 2.025-1.5202 3.476-1.5137 1.426 0 2.533 0.42969 3.321 1.2891 0.787 0.85938 1.181 2.0215 1.181 3.4864v1.5527h-6.308l-0.02 0.0586c0.052 0.6966 0.283 1.2695 0.694 1.7188 0.416 0.4492 0.979 0.6738 1.689 0.6738 0.632 0 1.156-0.0619 1.572-0.1856 0.417-0.1302 0.873-0.332 1.367-0.6054l0.772 1.7578c-0.436 0.345-1.003 0.6347-1.699 0.8691-0.69 0.2344-1.462 0.3516-2.315 0.3516zm-0.254-8.7696c-0.527 0-0.944 0.20182-1.25 0.60547-0.306 0.40364-0.494 0.93424-0.566 1.5918l0.029 0.04883h3.496v-0.25391c0-0.60546-0.143-1.0872-0.429-1.4453-0.28-0.36458-0.707-0.54687-1.28-0.54687zm6.075 6.8554 1.367-0.293v-6.5527l-1.514-0.29297v-1.7188h4.17l0.127 1.543c0.247-0.54687 0.566-0.9733 0.957-1.2793s0.843-0.45899 1.357-0.45899c0.15 0 0.306 0.01302 0.469 0.03906 0.169 0.01954 0.309 0.04558 0.42 0.07813l-0.303 2.5976-1.172-0.02929c-0.416 0-0.761 0.08138-1.035 0.24414-0.273 0.16276-0.481 0.39388-0.625 0.69336v5.1367l1.368 0.293v1.709h-5.586v-1.709z" fill="#fff"/>
</svg>
