<svg width="138" height="21" fill="none" xmlns="http://www.w3.org/2000/svg"><path d="M15.078 1.781V3.5l-1.523.293V16h-2.842L4.97 6.43l-.06.01v7.558l1.524.293V16H.547v-1.71l1.513-.292V3.793L.547 3.5V1.78h4.365l5.742 9.57.059-.01V3.794L9.189 3.5V1.781h5.889zm6.045 14.424c-1.524 0-2.741-.488-3.652-1.465-.912-.976-1.368-2.217-1.368-3.72v-.391c0-1.57.43-2.861 1.29-3.877.865-1.016 2.024-1.52 3.476-1.514 1.426 0 2.532.43 3.32 1.29.788.859 1.182 2.02 1.182 3.486v1.552h-6.309l-.02.059c.053.697.284 1.27.694 1.719.417.449.98.674 1.69.674.631 0 1.155-.062 1.572-.186.416-.13.872-.332 1.367-.605l.772 1.757c-.437.345-1.003.635-1.7.87-.69.234-1.461.351-2.314.351zm-.254-8.77c-.527 0-.944.202-1.25.606-.306.404-.495.934-.567 1.592l.03.049h3.496v-.254c0-.606-.143-1.088-.43-1.446-.28-.364-.706-.546-1.28-.546zm20.918-.283l-1.065.137-2.207 8.71h-2.382L34.17 9.712h-.059L32.148 16h-2.373l-2.217-8.711-1.064-.137V5.433h4.785v1.72l-1.123.214.996 4.834h.059l1.972-6.767h1.914l1.993 6.787h.058l.987-4.844-1.133-.225V5.433h4.785v1.72zm9.6 1.914h-1.915l-.302-1.318a2.487 2.487 0 00-.742-.39 2.899 2.899 0 00-.977-.157c-.501 0-.898.114-1.191.342-.293.221-.44.501-.44.84 0 .319.14.586.42.8.28.209.84.394 1.68.557 1.308.26 2.278.645 2.91 1.152.631.502.947 1.195.947 2.08 0 .951-.41 1.73-1.23 2.335-.814.598-1.888.898-3.223.898a6.885 6.885 0 01-2.246-.352 5.813 5.813 0 01-1.807-1.025l-.029-2.373h1.992l.39 1.377c.17.143.401.25.694.322.293.065.6.098.918.098.58 0 1.019-.104 1.319-.313a.976.976 0 00.459-.85c0-.312-.154-.582-.46-.81-.306-.228-.869-.43-1.689-.605-1.244-.254-2.184-.628-2.822-1.123-.632-.502-.947-1.182-.947-2.041 0-.886.364-1.647 1.093-2.285.73-.645 1.768-.967 3.115-.967.82 0 1.596.11 2.325.332.735.221 1.312.504 1.728.85l.03 2.626zm1.455 5.225l1.015-.146L58.183 1.78h2.92L65.4 14.145l1.016.146V16h-4.844v-1.709l.986-.176-.625-1.953h-4.609l-.625 1.953.986.176V16h-4.843v-1.709zm5.156-4.229h3.262l-1.602-5.01h-.059l-1.601 5.01zm9.277 4.229l1.367-.293V7.445l-1.513-.293V5.434h4.17l.127 1.513a3.87 3.87 0 011.298-1.26c.515-.3 1.09-.449 1.729-.449 1.068 0 1.901.335 2.5 1.006.599.67.898 1.722.898 3.154v4.6l1.368.293V16h-5.45v-1.709l1.221-.293v-4.59c0-.71-.143-1.21-.43-1.504-.286-.3-.72-.449-1.299-.449-.377 0-.716.078-1.015.234-.3.15-.55.365-.752.645v5.664l1.152.293V16h-5.37v-1.709zM86.855 16a4.465 4.465 0 01-.342-1.104 3.901 3.901 0 01-1.24.948c-.482.24-1.035.361-1.66.361-1.035 0-1.859-.28-2.47-.84-.606-.566-.909-1.334-.909-2.305 0-.989.397-1.754 1.192-2.294.794-.54 1.96-.811 3.496-.811h1.455V8.92c0-.508-.147-.902-.44-1.182-.293-.28-.726-.42-1.299-.42-.325 0-.615.04-.869.118a2.18 2.18 0 00-.615.263l-.185 1.133H80.82l.01-2.344a8.031 8.031 0 011.787-.888 6.54 6.54 0 012.207-.362c1.308 0 2.37.322 3.183.967.82.638 1.231 1.55 1.231 2.734v4.825c.007.143.02.28.039.41l.87.117V16h-3.292zm-2.47-1.904c.43 0 .82-.091 1.171-.274.352-.188.625-.423.82-.703v-1.611h-1.454c-.606 0-1.065.143-1.377.43-.313.28-.47.618-.47 1.015 0 .358.115.638.343.84.234.202.556.303.966.303zM90.82 2.485V.765h4.375v13.233l1.377.293V16h-5.606v-1.71l1.378-.292V2.777l-1.524-.293zm17.627 4.668l-.986.146-3.887 10.283c-.306.762-.716 1.4-1.23 1.914-.508.515-1.276.772-2.305.772-.24 0-.469-.02-.683-.059a12.629 12.629 0 01-.743-.166l.332-2.08.284.04c.097.012.182.019.253.019.476 0 .84-.117 1.094-.352.254-.228.449-.514.586-.86l.322-.8-3.35-8.701-.986-.156v-1.72h5.176v1.72l-1.181.195 1.445 4.218.146.762.059.01 1.67-4.99-1.192-.195v-1.72h5.176v1.72zm4.678 6.66h2.949l.117-1.406h2.178V16h-8.779v-1.68l5.029-6.679h-2.588l-.107 1.396h-2.188V5.434h8.457v1.63l-5.068 6.749zm11.572 2.393c-1.523 0-2.741-.489-3.652-1.465-.912-.977-1.367-2.217-1.367-3.721v-.39c0-1.57.429-2.862 1.289-3.878.866-1.015 2.025-1.52 3.476-1.513 1.426 0 2.533.43 3.321 1.289.787.86 1.181 2.021 1.181 3.486v1.553h-6.308l-.02.058c.052.697.283 1.27.694 1.72.416.448.979.673 1.689.673.632 0 1.156-.062 1.572-.186.417-.13.873-.332 1.367-.605l.772 1.758c-.436.345-1.003.635-1.699.869-.69.234-1.462.352-2.315.352zm-.254-8.77c-.527 0-.944.202-1.25.605-.306.404-.494.935-.566 1.592l.029.049h3.496v-.254c0-.605-.143-1.087-.429-1.445-.28-.365-.707-.547-1.28-.547zm6.075 6.855l1.367-.293V7.446l-1.514-.293v-1.72h4.17l.127 1.544c.247-.547.566-.974.957-1.28a2.139 2.139 0 011.357-.458c.15 0 .306.013.469.039.169.02.309.045.42.078l-.303 2.597-1.172-.029c-.416 0-.761.081-1.035.244a1.585 1.585 0 00-.625.694v5.136l1.368.293v1.71h-5.586v-1.71z" fill="#1A1B22"/></svg>