<svg fill="none" viewBox="0 0 138 21" xmlns="http://www.w3.org/2000/svg"><path d="M15.078 1.781V3.5l-1.523.293V16h-2.842L4.97 6.43l-.059.01v7.558l1.523.293V16H.547v-1.709l1.513-.293V3.793L.547 3.5V1.781h4.365l5.742 9.57.059-.01V3.794L9.189 3.5V1.781h5.889zm6.045 14.424c-1.523 0-2.74-.488-3.652-1.465-.912-.976-1.368-2.217-1.368-3.72v-.391c0-1.569.43-2.861 1.29-3.877.865-1.016 2.024-1.52 3.476-1.514 1.426 0 2.533.43 3.32 1.29.788.859 1.182 2.02 1.182 3.486v1.552h-6.309l-.02.06c.053.696.284 1.269.694 1.718.417.45.98.674 1.69.674.631 0 1.155-.062 1.572-.186.417-.13.872-.332 1.367-.605l.772 1.757c-.437.345-1.003.635-1.7.87-.69.234-1.461.351-2.314.351zm-.254-8.77c-.527 0-.944.202-1.25.606-.306.404-.495.934-.566 1.592l.029.049h3.496v-.254c0-.606-.143-1.087-.43-1.446-.28-.364-.706-.546-1.279-.546zm20.918-.283l-1.064.137L38.516 16h-2.383L34.17 9.71h-.059L32.148 16h-2.373L27.56 7.29l-1.065-.138V5.434h4.785v1.718l-1.123.215.996 4.834h.059l1.973-6.767h1.914l1.992 6.787h.058l.987-4.844-1.133-.225V5.434h4.785v1.718zm9.6 1.914h-1.914l-.303-1.318a2.487 2.487 0 00-.742-.39 2.899 2.899 0 00-.977-.157c-.501 0-.898.114-1.191.342-.293.221-.44.501-.44.84 0 .319.14.586.42.8.28.209.84.395 1.68.557 1.308.26 2.278.645 2.91 1.153.631.501.947 1.194.947 2.08 0 .95-.41 1.728-1.23 2.334-.814.599-1.888.898-3.223.898a6.885 6.885 0 01-2.246-.351 5.813 5.813 0 01-1.807-1.026l-.029-2.373h1.992l.39 1.377c.17.143.401.25.694.322.293.065.6.098.918.098.58 0 1.02-.104 1.319-.312.306-.209.459-.492.459-.85 0-.313-.153-.583-.46-.81s-.869-.43-1.689-.606c-1.243-.254-2.184-.628-2.822-1.123-.632-.501-.947-1.182-.947-2.041 0-.886.364-1.647 1.093-2.285.73-.645 1.768-.967 3.116-.967.82 0 1.595.11 2.324.332.735.221 1.312.504 1.728.85l.03 2.627zm1.455 5.225l1.015-.146 4.327-12.363h2.92L65.4 14.145l1.016.146v1.71h-4.844v-1.71l.987-.176-.625-1.953h-4.61l-.625 1.953.986.176v1.71h-4.843v-1.71zm5.156-4.228h3.262l-1.602-5.01H59.6l-1.602 5.01zm9.277 4.228l1.367-.293V7.445l-1.513-.293V5.434h4.17l.127 1.513c.351-.54.784-.96 1.298-1.26s1.091-.449 1.729-.449c1.068 0 1.901.336 2.5 1.006.599.67.898 1.722.898 3.154v4.6l1.368.293v1.71h-5.45v-1.71l1.221-.293v-4.59c0-.71-.143-1.21-.43-1.504-.286-.3-.719-.449-1.298-.449-.378 0-.717.078-1.016.235-.3.15-.55.364-.752.644v5.664l1.152.293v1.71h-5.37v-1.71zm19.58 1.71a4.465 4.465 0 01-.342-1.104c-.338.39-.752.706-1.24.947-.482.24-1.035.361-1.66.361-1.035 0-1.859-.28-2.47-.84-.606-.566-.909-1.334-.909-2.304 0-.99.397-1.755 1.192-2.295.794-.54 1.96-.81 3.496-.81h1.455V8.92c0-.508-.147-.902-.44-1.182s-.726-.42-1.298-.42c-.326 0-.616.04-.87.118a2.18 2.18 0 00-.615.263l-.185 1.133H80.82l.01-2.344a8.031 8.031 0 011.787-.888 6.54 6.54 0 012.207-.362c1.309 0 2.37.323 3.184.967.82.638 1.23 1.55 1.23 2.735v4.824c.007.143.02.28.04.41l.868.117V16h-3.29zm-2.47-1.905c.43 0 .82-.091 1.171-.274.352-.188.625-.423.82-.703v-1.611h-1.454c-.606 0-1.065.143-1.377.43-.313.28-.469.618-.469 1.015 0 .358.114.638.342.84.234.202.556.303.967.303zM90.82 2.485V.766h4.375v13.232l1.377.293V16h-5.605v-1.709l1.377-.293V2.777l-1.524-.293zm17.627 4.668l-.986.146-3.887 10.283c-.306.762-.716 1.4-1.23 1.914-.508.515-1.276.772-2.305.772-.24 0-.469-.02-.683-.059a12.629 12.629 0 01-.743-.166l.332-2.08.284.04c.097.012.182.019.253.019.476 0 .84-.117 1.094-.352.254-.228.45-.514.586-.86l.322-.8-3.35-8.701-.986-.156v-1.72h5.176v1.72l-1.18.195 1.444 4.219.146.761.06.01 1.67-4.99-1.193-.195v-1.72h5.176v1.72zm4.678 6.66h2.95l.116-1.406h2.178V16h-8.779v-1.68l5.03-6.679h-2.589l-.107 1.397h-2.188V5.434h8.457v1.631l-5.068 6.748zm11.572 2.393c-1.523 0-2.74-.489-3.652-1.465-.912-.977-1.367-2.217-1.367-3.721v-.39c0-1.57.43-2.862 1.29-3.878.865-1.015 2.024-1.52 3.475-1.513 1.426 0 2.533.43 3.321 1.289.787.86 1.181 2.021 1.181 3.486v1.553h-6.308l-.02.058c.052.697.283 1.27.694 1.72.416.448.98.673 1.69.673.631 0 1.155-.062 1.571-.186.417-.13.873-.332 1.367-.605l.772 1.758c-.436.345-1.003.635-1.699.869-.69.234-1.462.352-2.315.352zm-.254-8.77c-.527 0-.944.202-1.25.605-.306.404-.494.935-.566 1.592l.03.05h3.495v-.255c0-.605-.143-1.087-.429-1.445-.28-.365-.707-.547-1.28-.547zm6.075 6.855l1.367-.293V7.446l-1.514-.293v-1.72h4.17l.127 1.544c.247-.547.566-.973.957-1.28s.843-.458 1.357-.458c.15 0 .306.013.47.039.168.02.308.045.42.078l-.304 2.597-1.172-.029c-.416 0-.76.082-1.035.244a1.585 1.585 0 00-.625.694v5.136l1.368.293v1.71h-5.586v-1.71z" fill="#fff"/></svg>